<?xml version="1.0" encoding="UTF-8"?>
<svg version="1.1" xmlns="http://www.w3.org/2000/svg" width="679" height="568">
<path d="M0 0 C224.07 0 448.14 0 679 0 C679 187.44 679 374.88 679 568 C454.93 568 230.86 568 0 568 C0 380.56 0 193.12 0 0 Z " fill="#140405" transform="translate(0,0)"/>
<path d="M0 0 C17.16 0 34.32 0 52 0 C52 68.31 52 136.62 52 207 C32.2 207 12.4 207 -8 207 C-21.84615385 192 -21.84615385 192 -26.5 186.5 C-26.9846875 185.9328125 -27.469375 185.365625 -27.96875 184.78125 C-30.0862564 182.29548162 -32.1647329 179.79313293 -34.19921875 177.23828125 C-36.00311359 174.91387743 -36.00311359 174.91387743 -38.3125 172.6875 C-41.06436754 169.93563246 -43.61039852 167.07309337 -46.15234375 164.12890625 C-47.42202048 162.66595949 -48.70680901 161.21603446 -50.00390625 159.77734375 C-50.64199219 159.06707031 -51.28007812 158.35679687 -51.9375 157.625 C-52.52402344 156.97789062 -53.11054688 156.33078125 -53.71484375 155.6640625 C-55 154 -55 154 -55 152 C-55.66 152 -56.32 152 -57 152 C-58.5078125 150.5390625 -58.5078125 150.5390625 -60.125 148.625 C-60.66382813 147.99851562 -61.20265625 147.37203125 -61.7578125 146.7265625 C-63 145 -63 145 -63 143 C-63.66 143 -64.32 143 -65 143 C-66.43812673 141.43059199 -67.8003005 139.79125965 -69.125 138.125 C-69.929375 137.12339844 -70.73375 136.12179687 -71.5625 135.08984375 C-73.09183876 133.1512108 -74.61384218 131.20674439 -76.125 129.25390625 C-79.57926108 124.82138764 -82.9329555 121.05886287 -87.30078125 117.53515625 C-89.91337737 115.17481079 -91.87061333 112.38256947 -93.97265625 109.5703125 C-96.82548833 105.95342712 -99.94539845 102.61013831 -103.09277344 99.24951172 C-111 90.78154951 -111 90.78154951 -111 88 C-111.99 87.67 -112.98 87.34 -114 87 C-115.53515625 85.1875 -115.53515625 85.1875 -117.0625 83 C-119.07953853 79.98371816 -119.07953853 79.98371816 -122 78 C-121.99262566 78.65745712 -121.98525131 79.31491425 -121.9776535 79.99229431 C-121.80077322 96.00941039 -121.66849623 112.02618555 -121.58550262 128.04403687 C-121.5442977 135.79029473 -121.48814926 143.53589962 -121.39648438 151.28173828 C-121.31660191 158.03517701 -121.26510059 164.78814276 -121.24729204 171.54204082 C-121.23688571 175.1165849 -121.21253456 178.68977623 -121.15415955 182.2638855 C-121.08942719 186.25986017 -121.08808968 190.25350239 -121.09179688 194.25 C-121.04865356 196.01622459 -121.04865356 196.01622459 -121.00463867 197.81813049 C-121.06461751 203.79797136 -121.52535006 207.23287011 -125.8145752 211.5859375 C-127.18407992 212.75468397 -128.57907941 213.89433451 -130 215 C-131.29566245 216.12039573 -132.58792712 217.24474729 -133.875 218.375 C-134.53242188 218.93960938 -135.18984375 219.50421875 -135.8671875 220.0859375 C-138.33932036 222.30451828 -140.66562178 224.63706669 -143 227 C-151.83603239 235.9178475 -151.83603239 235.9178475 -156 239 C-156.66 239 -157.32 239 -158 239 C-158.24878906 239.58652344 -158.49757812 240.17304688 -158.75390625 240.77734375 C-160.17411196 243.31056333 -161.71183746 244.70985353 -163.9375 246.5625 C-166.88306043 249.03190133 -166.88306043 249.03190133 -169.62890625 251.71484375 C-171 253 -171 253 -173 253 C-173.80303645 246.17870474 -174.14217042 239.47560824 -174.12025452 232.61019897 C-174.12110894 231.61343506 -174.12196337 230.61667114 -174.12284368 229.58970225 C-174.1244803 226.27641686 -174.11900708 222.96318301 -174.11352539 219.64990234 C-174.1132431 217.2642212 -174.11340207 214.87853998 -174.1139679 212.49285889 C-174.11422456 206.70428502 -174.10990311 200.9157278 -174.10353024 195.12715773 C-174.09635925 188.38704107 -174.09488312 181.64692672 -174.09374207 174.90680678 C-174.09155762 162.88855128 -174.08491403 150.87030259 -174.07543945 138.85205078 C-174.0662496 127.18278029 -174.05917647 115.51351166 -174.05493164 103.84423828 C-174.05466892 103.12401259 -174.05440619 102.40378689 -174.05413551 101.66173618 C-174.0528304 98.04829729 -174.05156671 94.43485839 -174.05032361 90.82141948 C-174.03996991 60.88094154 -174.02229341 30.94047157 -174 1 C-166.13477827 0.8731156 -158.26982095 0.78561221 -150.40380859 0.7253418 C-147.72819073 0.70303822 -145.05391007 0.666114 -142.37841797 0.62280273 C-138.53075234 0.5620802 -134.68399523 0.5337716 -130.8359375 0.51171875 C-129.64197357 0.48591232 -128.44800964 0.4601059 -127.21786499 0.43351746 C-117.94757705 0.43039357 -117.94757705 0.43039357 -114.29174805 3.4152832 C-110.83402955 7.31502388 -110.83402955 7.31502388 -109.4375 9.5 C-107.25666593 12.71568846 -104.8242367 15.31353095 -102 18 C-99.94315047 19.95936851 -97.96464704 21.94397403 -96 24 C-96 24.66 -96 25.32 -96 26 C-95.34 26 -94.68 26 -94 26 C-92.76564749 27.70140482 -91.53673375 29.40727588 -90.34765625 31.140625 C-88.4891168 33.70487074 -86.26417604 35.78973291 -84 38 C-80.59870333 41.74050955 -77.33550679 45.60382085 -74.05859375 49.453125 C-73.27270874 50.37460327 -73.27270874 50.37460327 -72.47094727 51.31469727 C-71.42900656 52.53738766 -70.38903796 53.76176215 -69.35131836 54.98803711 C-67.12934226 57.59672989 -64.89791984 60.10208016 -62.47265625 62.52734375 C-59.65559608 65.34440392 -57.1121871 68.31788131 -54.5625 71.375 C-53.59253406 72.52871826 -52.62248274 73.68236475 -51.65234375 74.8359375 C-50.76812836 75.89054049 -49.88400341 76.94521932 -49 78 C-46.29490418 81.21900756 -43.60079092 84.39920908 -40.625 87.375 C-36.90566269 91.09433731 -33.46927322 95.0483326 -30 99 C-29.37480469 99.70898438 -28.74960937 100.41796875 -28.10546875 101.1484375 C-26.39604527 103.09248773 -24.69620955 105.04441861 -23 107 C-22.48953125 107.58136719 -21.9790625 108.16273438 -21.453125 108.76171875 C-18 112.76773174 -18 112.76773174 -18 115 C-17.13181641 115.34611328 -17.13181641 115.34611328 -16.24609375 115.69921875 C-13.4362197 117.32650233 -12.01862019 119.22887195 -10.0625 121.8125 C-7.19701962 125.57807163 -4.40421462 128.59578538 -1 132 C-0.505 66.66 -0.505 66.66 0 0 Z " fill="#CB0C14" transform="translate(291,169)"/>
<path d="M0 0 C14.85 0 29.7 0 45 0 C45 27.06 45 54.12 45 82 C73.71 82 102.42 82 132 82 C132 54.94 132 27.88 132 0 C149.16 0 166.32 0 184 0 C184 68.31 184 136.62 184 207 C167.17 207 150.34 207 133 207 C133 181.59 133 156.18 133 130 C103.63 130 74.26 130 44 130 C44 155.41 44 180.82 44 207 C29.48 207 14.96 207 0 207 C0 138.69 0 70.38 0 0 Z " fill="#FBFBFC" transform="translate(359,169)"/>
<path d="M0 0 C19.14 0 38.28 0 58 0 C57.67 0.66 57.34 1.32 57 2 C38.52 1.67 20.04 1.34 1 1 C1.03029297 6.99945801 1.06058594 12.99891602 1.09179688 19.18017578 C1.19263569 39.18472341 1.29220546 59.18927722 1.39115143 79.1938343 C1.45106849 91.30158933 1.5113944 103.40934204 1.57275391 115.51708984 C1.62635992 126.09510251 1.67912653 136.67311901 1.73096704 147.25114048 C1.75833224 152.8294492 1.78606178 158.40775547 1.81480408 163.98605728 C1.96734994 193.65762098 2.02997511 223.32804565 2 253 C3.27200971 251.89718873 4.54255853 250.79269231 5.8125 249.6875 C6.52019531 249.07261719 7.22789063 248.45773437 7.95703125 247.82421875 C9.70136739 246.26665665 11.36778041 244.67341125 13 243 C13.66 243.33 14.32 243.66 15 244 C13.44716875 245.63424183 11.8823119 247.25706248 10.3125 248.875 C9.44238281 249.77992188 8.57226562 250.68484375 7.67578125 251.6171875 C5 254 5 254 0 256 C0 171.52 0 87.04 0 0 Z " fill="#5F080C" transform="translate(116,169)"/>
<path d="M0 0 C1.98 0.99 1.98 0.99 4 2 C4 2.66 4 3.32 4 4 C3.34 4 2.68 4 2 4 C2.02963837 4.55959915 2.05927673 5.1191983 2.08981323 5.695755 C2.90666607 21.53431328 3.16227756 37.32968054 3.125 53.1875 C3.12267365 54.94978943 3.12267365 54.94978943 3.12030029 56.74768066 C3.09592395 72.62016177 2.98786781 88.49151888 2.68060303 104.36123657 C2.64371238 106.27782901 2.60970781 108.19447931 2.57867432 110.11117554 C2.53406133 112.74632969 2.47635604 115.38083709 2.4140625 118.015625 C2.40250122 118.78793961 2.39093994 119.56025421 2.37902832 120.35597229 C2.27399424 124.08604026 2.12076009 125.81885987 0 129 C0 86.43 0 43.86 0 0 Z " fill="#580509" transform="translate(169,247)"/>
<path d="M0 0 C0.66 0.33 1.32 0.66 2 1 C0.90653119 2.34212062 -0.2001575 3.67347975 -1.3125 5 C-2.23482422 6.11375 -2.23482422 6.11375 -3.17578125 7.25 C-5 9 -5 9 -8 9 C-8 8.34 -8 7.68 -8 7 C-6.25 5.2734375 -6.25 5.2734375 -4 3.375 C-3.2575 2.74335938 -2.515 2.11171875 -1.75 1.4609375 C-1.1725 0.97882813 -0.595 0.49671875 0 0 Z " fill="#510609" transform="translate(141,401)"/>
</svg>
